<svg xmlns="http://www.w3.org/2000/svg" xmlns:xlink="http://www.w3.org/1999/xlink" width="22" height="22" viewBox="0 0 22 22">
  <defs>
    <clipPath id="clip-path">
      <path id="Path_2236" data-name="Path 2236" d="M9-6v2H2A2,2,0,0,1,0-6V-20a2,2,0,0,1,2-2H16a2,2,0,0,1,2,2v7H16v-7H2V-6Zm7,6a6,6,0,0,1-6-6,6,6,0,0,1,6-6,6,6,0,0,1,6,6A6,6,0,0,1,16,0Zm0-2a4,4,0,0,0,4-4,4,4,0,0,0-4-4,4,4,0,0,0-4,4A4,4,0,0,0,16-2ZM15-5V-9h2v2h2v2Z" fill="#585858" clip-rule="evenodd"/>
    </clipPath>
  </defs>
  <g id="Group_253" data-name="Group 253" transform="translate(0 22)" clip-path="url(#clip-path)">
    <path id="Path_2235" data-name="Path 2235" d="M-5,5H27V-27H-5Z" fill="#585858"/>
  </g>
</svg>
